<svg width="109" height="41" viewBox="0 0 109 41" fill="none" xmlns="http://www.w3.org/2000/svg">
<path fill-rule="evenodd" clip-rule="evenodd" d="M51.4207 30.6664H55.2144V13.4603H51.4207V30.6664ZM51.4207 10.496H55.2144V6.8999H51.4207V10.496Z" fill="#1C355E"/>
<path fill-rule="evenodd" clip-rule="evenodd" d="M71.4551 22.0811C71.4551 25.0779 70.156 28.1394 66.696 28.1394C63.6345 28.1394 61.8721 25.5444 61.8721 22.0811C61.8721 18.4203 63.5016 15.9905 66.696 15.9905C69.8903 15.9905 71.4551 18.9548 71.4551 22.0811ZM58.208 30.6696H61.8008V28.3079H61.8688C62.9995 30.5724 65.4941 31.1361 67.8234 31.1361C72.9162 31.1361 75.2456 26.7755 75.2456 22.1492C75.2456 17.1244 72.6149 12.997 67.1917 12.997C65.2608 12.997 63.0999 14.0305 62.0664 15.6924H62.0017V6.90637H58.208V30.6696Z" fill="#1C355E"/>
<path fill-rule="evenodd" clip-rule="evenodd" d="M76.5382 30.6664H80.3319V13.4603H76.5382V30.6664ZM76.5382 10.496H80.3319V6.8999H76.5382V10.496Z" fill="#1C355E"/>
<path fill-rule="evenodd" clip-rule="evenodd" d="M98.7853 19.2172C98.4192 14.9894 95.024 12.9938 91.0294 12.9938C85.3729 12.9938 82.5446 17.0531 82.5446 22.2464C82.5446 27.4396 85.5057 31.1329 90.8966 31.1329C95.322 31.1329 98.0855 28.6675 98.7853 24.2096H94.9916C94.6255 26.675 93.0964 28.1361 90.8998 28.1361C87.6051 28.1361 86.3416 25.107 86.3416 22.2431C86.3416 17.0175 89.105 15.9873 91.0651 15.9873C93.1612 15.9873 94.6935 17.1179 94.9916 19.2172H98.7853Z" fill="#1C355E"/>
<path fill-rule="evenodd" clip-rule="evenodd" d="M98.918 16.2885H101.779V26.4385C101.843 29.2991 102.576 30.8315 106.538 30.8315C107.37 30.8315 108.167 30.6987 109 30.6339V27.7052C108.469 27.838 107.934 27.838 107.403 27.838C105.705 27.838 105.572 27.0378 105.572 25.4763V16.2885H109V13.4602H105.572V8.30261H101.779V13.4602H98.918V16.2885Z" fill="#1C355E"/>
<path fill-rule="evenodd" clip-rule="evenodd" d="M10.121 1.05224C10.121 0.339508 10.3511 -0.188563 11.0152 0.0641334C11.9806 0.456138 21.0259 5.09215 21.5993 5.39021C21.9654 5.57487 22.6328 5.73361 23.1155 5.50359L34.9663 0.43022C35.1737 0.407542 35.1283 0.660239 34.8756 0.773628C34.6456 0.912936 22.9827 8.14395 22.0172 8.6947C22.3833 8.78541 22.9827 8.37397 23.3261 8.21199C24.6803 7.66124 34.5063 3.29736 34.921 3.06734C35.0344 2.97663 35.2871 3.22932 34.8756 3.43342C34.4869 3.64077 23.0961 10.3664 22.1792 11.0111C22.5453 11.0338 23.0993 10.8037 23.352 10.6677C23.6274 10.5284 34.2115 6.02843 34.9696 5.68502C35.1542 5.61698 35.2223 6.00899 34.9469 6.14506C34.2115 6.48846 22.9827 12.9193 22.5485 13.1493C22.3866 13.2173 22.2732 13.3793 22.2732 13.4247C22.8466 13.2173 34.4642 8.44201 35.0862 8.32538C35.2028 8.3027 35.3162 8.5554 34.9696 8.78541C34.6262 8.99276 24.0194 14.8469 22.5939 15.673C22.3866 15.7637 22.2699 15.9257 22.2959 16.0391C22.8693 15.903 34.3735 11.0791 34.9696 10.8718C35.1996 10.8037 35.1996 11.0338 34.9922 11.1698C34.7849 11.3059 24.7742 17.2313 24.0874 17.5521C23.65 17.7562 22.7332 18.2842 21.5831 17.7367C20.4103 17.1633 12.3986 12.4333 11.4104 11.7886C10.445 11.1245 10.1016 10.4344 10.1016 9.83832C10.1016 9.24221 10.1243 1.9626 10.1243 1.04576" fill="#1C355E"/>
<path fill-rule="evenodd" clip-rule="evenodd" d="M12.9914 39.7636C12.3726 40.1297 11.7733 40.2009 11.6826 39.4882C11.5206 38.4547 10.9018 28.308 10.8565 27.686C10.8338 27.2486 10.5584 26.4451 10.121 26.1471L0.0423226 18.5241C-0.0969847 18.3394 0.133035 18.2714 0.363054 18.4074C0.615751 18.5467 12.5314 25.0683 13.4968 25.6158C13.3834 25.2497 13.1307 25.0197 12.8327 24.7897C11.6599 23.8955 2.72804 17.442 2.31659 17.212C2.18053 17.144 2.27124 16.82 2.66 17.05C3.05201 17.28 14.3942 23.8469 15.405 24.3069C15.243 23.9635 14.7603 23.6169 14.5108 23.4581C14.2581 23.2962 5.11894 16.4766 4.4548 15.9744C4.29281 15.8578 4.59087 15.6083 4.84356 15.7671C5.51094 16.2271 16.6458 22.632 17.0605 22.8847C17.1966 23.0013 17.4039 23.024 17.4492 23.0013C16.9665 22.6093 7.14051 15.0576 6.72583 14.5976C6.63512 14.5068 6.81654 14.2768 7.18587 14.4615C7.41589 14.5976 17.5626 20.9344 19.2149 21.8772C19.3995 21.9906 19.3542 21.8998 19.4449 21.7152C19.0302 21.2778 9.18153 13.6775 8.69881 13.266C8.51415 13.104 8.72149 12.9907 8.92883 13.104C9.15885 13.2207 19.4449 18.9128 20.0637 19.3275C20.4751 19.6029 21.3952 20.1083 21.5086 21.3944C21.6252 22.6806 21.6252 31.9786 21.554 33.174C21.4859 34.3468 21.0712 35.0109 20.5658 35.309C20.0604 35.607 13.7689 39.2808 12.9882 39.7636" fill="#1C355E"/>
<path fill-rule="evenodd" clip-rule="evenodd" d="M44.9543 18.1094C45.5731 18.4755 45.8258 18.8448 45.275 19.2821C44.4489 19.9236 36.1812 25.3663 35.6531 25.7097C35.287 25.9397 34.5289 26.6265 34.4836 27.1546L32.9901 39.9676C32.9188 40.1523 32.7374 39.9903 32.7374 39.7149C32.7374 39.4396 32.394 25.7324 32.3713 24.6309C32.1186 24.9063 32.1413 25.3436 32.0732 25.7097C31.8886 27.1546 30.6964 38.1081 30.6964 38.5681C30.6964 38.7301 30.3724 38.8208 30.3983 38.3608C30.3983 37.904 30.3983 24.6989 30.3076 23.6201C30.0776 23.9182 30.0322 24.4916 30.0095 24.7896C29.9869 25.0877 28.516 36.3619 28.4253 37.188C28.4027 37.3921 28.1273 37.3921 28.15 37.0973C28.218 36.2938 28.2407 23.3642 28.2633 22.862C28.286 22.7 28.218 22.4959 28.1726 22.47C28.0592 23.0888 26.3843 35.3284 26.1997 35.9018C26.1543 36.0411 25.8757 36.1999 25.8562 35.8111C25.8562 35.3997 26.177 23.2281 26.1997 21.5532C26.1997 21.3458 25.9923 21.2324 25.9016 21.1871C25.7169 21.7605 24.1813 34.1362 24.042 34.755C23.9967 35.0077 23.7893 34.8943 23.7666 34.6416C23.7666 34.3889 23.6306 22.7454 23.6759 22.0132C23.7213 21.5078 23.7213 20.4517 24.7774 19.7163C25.8336 18.9808 33.9393 14.4129 34.9955 13.8848C36.0743 13.3794 36.8324 13.4248 37.3378 13.7001C37.8431 13.9982 44.1573 17.6493 44.9608 18.1094" fill="#1C355E"/>
</svg>
