<svg width="330" height="68" viewBox="0 0 330 68" fill="none" xmlns="http://www.w3.org/2000/svg">
<path d="M58.7767 22.8574V17.5396L56.5793 21.5749H55.8856L53.6772 17.5396V22.8574H52.5026V15.3948H53.7657L56.2339 19.958L58.702 15.3948H59.9651V22.8574H58.7739H58.7767Z" fill="#222221"/>
<path d="M63.8346 22.8574V15.3948H64.9402V22.8574H63.8346Z" fill="#222221"/>
<path d="M69.9803 17.5802V22.8546H68.8097V15.3948H69.771L73.9851 20.788V15.4058H75.1667V22.8574H74.1393L69.9803 17.583V17.5802Z" fill="#222221"/>
<path d="M78.7598 22.8574V15.3948H79.8653V22.8574H78.7598Z" fill="#222221"/>
<path d="M88.1555 17.1721C87.9955 16.9982 87.7222 16.8297 87.3358 16.6666C86.9494 16.5063 86.552 16.4248 86.1408 16.4248C85.655 16.4248 85.2935 16.5117 85.0506 16.6911C84.8105 16.8677 84.689 17.1177 84.689 17.4411C84.689 17.5417 84.7028 17.6341 84.7304 17.7129C84.758 17.7944 84.7939 17.8651 84.8353 17.9276C84.8794 17.9901 84.9429 18.0499 85.0285 18.107C85.114 18.164 85.1996 18.2129 85.2824 18.2537C85.3652 18.2945 85.4811 18.338 85.6247 18.3814C85.7709 18.4276 85.9062 18.4657 86.0331 18.4983C86.1601 18.5309 86.3257 18.5717 86.5299 18.6206C86.8584 18.6994 87.1371 18.7755 87.3717 18.8516C87.6035 18.9277 87.8271 19.0228 88.0424 19.1397C88.2577 19.2565 88.4315 19.3842 88.5613 19.5283C88.691 19.6723 88.7931 19.8462 88.8704 20.0501C88.9477 20.2566 88.9863 20.4903 88.9863 20.7512C88.9863 21.0447 88.9394 21.3083 88.8455 21.5447C88.7517 21.7812 88.622 21.9796 88.4591 22.1399C88.2963 22.3002 88.0976 22.4361 87.8657 22.5475C87.6339 22.6562 87.3827 22.7351 87.1178 22.784C86.8528 22.8329 86.563 22.8574 86.2567 22.8574C85.6881 22.8574 85.1416 22.7731 84.6117 22.6019C84.0818 22.4307 83.6043 22.1861 83.1821 21.8681L83.7203 20.8735C83.9355 21.0936 84.2861 21.3029 84.7746 21.5067C85.2631 21.7105 85.7627 21.8111 86.2788 21.8111C86.7424 21.8111 87.1012 21.7295 87.3524 21.5692C87.6036 21.4089 87.7305 21.1751 87.7305 20.8735C87.7305 20.7512 87.7112 20.6425 87.6753 20.5447C87.6367 20.4468 87.5732 20.3599 87.4793 20.2783C87.3883 20.1995 87.2917 20.1316 87.1951 20.0745C87.0985 20.0174 86.9605 19.9577 86.7811 19.8979C86.6017 19.8381 86.4388 19.7864 86.2898 19.7457C86.1408 19.7049 85.9393 19.6533 85.6881 19.5881C85.2962 19.4875 84.9705 19.3842 84.7139 19.281C84.4572 19.1777 84.2309 19.05 84.0349 18.8978C83.8389 18.7456 83.6954 18.5662 83.6071 18.3597C83.5188 18.1532 83.4746 17.9086 83.4746 17.6259C83.4746 17.2727 83.5436 16.9547 83.6816 16.6693C83.8196 16.384 84.0101 16.1503 84.2529 15.9655C84.4958 15.7807 84.7801 15.6394 85.1085 15.5415C85.437 15.4437 85.793 15.3948 86.1794 15.3948C87.0957 15.3948 87.9348 15.672 88.6965 16.2237L88.1638 17.1721H88.1555Z" fill="#222221"/>
<path d="M97.8308 16.4368H95.3838V22.8574H94.2081V16.4368H91.7502V15.3948H97.8308V16.4368Z" fill="#222221"/>
<path d="M106.123 21.8099V22.8576H100.871V15.3542H106.026V16.4019H102.076V18.5334H105.493V19.52H102.076V21.8127H106.12L106.123 21.8099ZM103.979 14.5789L103.199 14.3455L103.814 13.1838H104.946L103.976 14.5761L103.979 14.5789Z" fill="#222221"/>
<path d="M109.439 22.8574V15.3948H112.661C112.984 15.3948 113.288 15.4639 113.578 15.6048C113.868 15.7458 114.112 15.931 114.309 16.1604C114.507 16.3898 114.663 16.6496 114.778 16.9398C114.893 17.23 114.95 17.5258 114.95 17.8215C114.95 18.3273 114.819 18.7861 114.553 19.1952C114.288 19.6042 113.94 19.8779 113.504 20.0188L115.243 22.8574H113.931L112.324 20.2593H110.603V22.8574H109.439ZM110.603 19.2173H112.65C112.973 19.2173 113.238 19.0818 113.449 18.8082C113.66 18.5346 113.764 18.2057 113.764 17.8187C113.764 17.4318 113.647 17.1139 113.408 16.8403C113.17 16.5694 112.896 16.4312 112.584 16.4312H110.606V19.2145L110.603 19.2173Z" fill="#222221"/>
<path d="M118.56 22.8574V15.3948H119.666V22.8574H118.56Z" fill="#222221"/>
<path d="M122.983 19.1247C122.983 18.6394 123.074 18.1677 123.257 17.7151C123.441 17.2597 123.691 16.8644 124.007 16.5236C124.324 16.1827 124.707 15.9101 125.157 15.7029C125.607 15.4957 126.084 15.3948 126.59 15.3948C127.095 15.3948 127.595 15.5038 128.05 15.7192C128.505 15.9346 128.883 16.2209 129.186 16.5726C129.488 16.9244 129.73 17.3252 129.905 17.7723C130.08 18.2195 130.169 18.6748 130.169 19.1383C130.169 19.6237 130.077 20.0926 129.894 20.5452C129.711 20.9978 129.461 21.3932 129.15 21.734C128.836 22.0748 128.455 22.3475 128.006 22.552C127.556 22.7565 127.078 22.8574 126.573 22.8574C126.154 22.8574 125.754 22.7892 125.376 22.6529C124.998 22.5165 124.665 22.3284 124.379 22.0885C124.093 21.8485 123.843 21.5731 123.632 21.2569C123.421 20.9406 123.26 20.6025 123.149 20.2371C123.038 19.8718 122.985 19.501 122.985 19.1247H122.983ZM126.581 21.8076C126.945 21.8076 127.281 21.7313 127.586 21.5759C127.892 21.4205 128.144 21.216 128.339 20.9597C128.536 20.7061 128.686 20.4198 128.794 20.1008C128.903 19.7845 128.955 19.4573 128.955 19.1247C128.955 18.7921 128.897 18.4431 128.783 18.1186C128.667 17.7969 128.511 17.5106 128.308 17.2625C128.108 17.0144 127.856 16.818 127.556 16.6708C127.256 16.5236 126.928 16.45 126.578 16.45C126.229 16.45 125.879 16.5263 125.57 16.6817C125.262 16.8344 125.01 17.0389 124.81 17.2925C124.61 17.546 124.454 17.8323 124.346 18.1486C124.235 18.4649 124.182 18.7921 124.182 19.1247C124.182 19.5909 124.276 20.0272 124.468 20.4307C124.66 20.8343 124.94 21.1669 125.312 21.4232C125.684 21.6795 126.106 21.8076 126.581 21.8076Z" fill="#222221"/>
<path d="M138.184 22.8546V15.3948H140.862C141.455 15.3948 141.986 15.4915 142.458 15.6849C142.931 15.8783 143.317 16.1463 143.619 16.4861C143.92 16.826 144.15 17.221 144.306 17.6659C144.463 18.1135 144.541 18.5942 144.541 19.1164C144.541 20.2464 144.206 21.1499 143.537 21.8323C142.869 22.5148 141.975 22.8574 140.862 22.8574H138.184V22.8546ZM140.862 16.4364H139.372V21.813H140.862C141.382 21.813 141.829 21.6942 142.204 21.4566C142.579 21.219 142.861 20.8985 143.048 20.4951C143.236 20.0917 143.328 19.6303 143.328 19.1136C143.328 18.3179 143.11 17.6714 142.671 17.1768C142.232 16.6823 141.631 16.4364 140.862 16.4364Z" fill="#222221"/>
<path d="M149.666 15.3948H150.775L153.662 22.8574H152.424L151.642 20.8286H148.775L147.999 22.8574H146.752L149.666 15.3948ZM151.414 19.958L150.217 16.6883L148.984 19.958H151.411H151.414Z" fill="#222221"/>
<path d="M4.60995 30.0519C5.30752 30.0519 5.92271 30.2017 6.4555 30.504C6.98829 30.8063 7.3865 31.2104 7.65015 31.7161L6.09573 32.8548C6.02707 32.6768 5.93644 32.5242 5.8211 32.3971C5.70575 32.2699 5.57666 32.171 5.43385 32.1032C5.29105 32.0354 5.14824 31.9846 5.00818 31.9563C4.86811 31.9252 4.72255 31.9111 4.5715 31.9111C4.29137 31.9111 4.04146 31.9704 3.82176 32.0863C3.5993 32.205 3.42354 32.3603 3.29446 32.5525C3.16264 32.7474 3.06376 32.9593 2.99511 33.191C2.92645 33.4227 2.89349 33.6629 2.89349 33.9087C2.89349 34.4653 3.04729 34.94 3.35762 35.3356C3.66796 35.7311 4.07716 35.9289 4.59073 35.9289C4.79121 35.9289 4.98346 35.9007 5.16747 35.8413C5.35147 35.782 5.52723 35.6831 5.69476 35.5362C5.86229 35.3893 5.98587 35.2113 6.06551 34.9937L7.72706 36.0109C7.58699 36.3725 7.34256 36.689 6.99377 36.9659C6.64499 37.2428 6.25776 37.449 5.83208 37.5818C5.40639 37.7174 4.97797 37.7824 4.54679 37.7824C4.01675 37.7824 3.51691 37.6694 3.04454 37.4405C2.57217 37.2117 2.17671 36.915 1.85538 36.5449C1.53406 36.1747 1.28139 35.7537 1.09464 35.2791C0.907893 34.8044 0.817261 34.324 0.817261 33.8381C0.817261 33.3521 0.90515 32.9113 1.08092 32.4592C1.25668 32.01 1.5011 31.6059 1.81418 31.2443C2.13001 30.8826 2.52823 30.5944 3.01433 30.374C3.50043 30.1537 4.03047 30.0435 4.60446 30.0435L4.60995 30.0519Z" fill="#222221"/>
<path d="M10.491 37.506V30.0435H12.4257V37.506H10.491Z" fill="#222221"/>
<path d="M21.2702 35.7084V37.5062H16.0188V29.9921H21.1802V31.7899H18.0413V32.8503H20.7244V34.5201H18.0413V35.7084H21.2702ZM16.7831 29.0515L17.9594 27.8325H19.3678L20.5442 29.0515L19.5452 29.4968L18.6636 28.8288L17.782 29.4968L16.7831 29.0515Z" fill="#222221"/>
<path d="M26.3552 33.8356V37.506H24.3105V30.0435H25.9054L28.8993 33.8356V30.0435H30.944V37.506H29.3187L26.3552 33.8356Z" fill="#222221"/>
<path d="M37.7797 30.0519C38.4773 30.0519 39.0925 30.2017 39.6252 30.504C40.158 30.8035 40.5562 31.2104 40.8199 31.7161L39.2627 32.8548C39.1941 32.6768 39.1034 32.5242 38.9881 32.3971C38.8727 32.2699 38.7437 32.171 38.6008 32.1032C38.458 32.0354 38.3152 31.9846 38.1752 31.9563C38.0351 31.9252 37.8895 31.9111 37.7385 31.9111C37.4584 31.9111 37.2085 31.9704 36.9887 32.0863C36.769 32.205 36.5905 32.3603 36.4615 32.5525C36.3296 32.7474 36.2308 32.9593 36.1621 33.191C36.0934 33.4227 36.0605 33.6629 36.0605 33.9087C36.0605 34.4653 36.2143 34.94 36.5246 35.3356C36.835 35.7311 37.2442 35.9289 37.7577 35.9289C37.9582 35.9289 38.1505 35.9007 38.3345 35.8413C38.5185 35.782 38.6942 35.6831 38.8618 35.5362C39.0293 35.3921 39.1529 35.2113 39.2325 34.9937L40.894 36.0109C40.754 36.3725 40.5096 36.689 40.1608 36.9659C39.812 37.2428 39.4248 37.449 38.9991 37.5818C38.5734 37.7146 38.145 37.7824 37.7138 37.7824C37.1837 37.7824 36.6839 37.6694 36.2115 37.4405C35.7392 37.2117 35.3437 36.915 35.0224 36.5449C34.7011 36.1747 34.4484 35.7537 34.2616 35.2791C34.0749 34.8044 33.9843 34.324 33.9843 33.8381C33.9843 33.3521 34.0721 32.9113 34.2479 32.4592C34.4237 32.01 34.6681 31.6059 34.9812 31.2443C35.2943 30.8826 35.6952 30.5944 36.1813 30.374C36.6674 30.1537 37.1975 30.0435 37.7715 30.0435L37.7797 30.0519Z" fill="#222221"/>
<path d="M43.658 37.506V30.0435H45.5927V37.506H43.658Z" fill="#222221"/>
<path d="M51.066 30.0435H53.3976L55.8192 37.506H53.7017L53.2427 36.0439H51.2124L50.7619 37.506H48.6331L51.066 30.0435ZM52.9076 34.6786L52.2318 32.0501L51.525 34.6786H52.9048H52.9076Z" fill="#222221"/>
<path d="M58.5287 39.1646L58.9086 37.5093H58.3068V35.5715H59.9652V37.5093L59.3939 39.1646H58.5287Z" fill="#222221"/>
<path d="M72.9555 31.829H70.8116V37.506H68.7562V31.829H66.5985V30.0435H72.9528V31.829H72.9555Z" fill="#222221"/>
<path d="M81.2473 35.7206V37.506H75.9958V30.0435H81.1572V31.829H78.0184V32.882H80.7014V34.5404H78.0184V35.7206H81.2473Z" fill="#222221"/>
<path d="M87.5302 30.0519C88.2278 30.0519 88.843 30.2017 89.3758 30.504C89.9086 30.8035 90.3068 31.2104 90.5704 31.7161L89.0133 32.8548C88.9446 32.6768 88.854 32.5242 88.7386 32.3971C88.6233 32.2699 88.4942 32.171 88.3514 32.1032C88.2086 32.0354 88.0658 31.9846 87.9257 31.9563C87.7857 31.9252 87.6401 31.9111 87.489 31.9111C87.2089 31.9111 86.959 31.9704 86.7393 32.0863C86.5196 32.205 86.3411 32.3603 86.212 32.5525C86.0802 32.7474 85.9813 32.9593 85.9126 33.191C85.844 33.4227 85.811 33.6629 85.811 33.9087C85.811 34.4653 85.9648 34.94 86.2752 35.3356C86.5855 35.7311 86.9947 35.9289 87.5083 35.9289C87.7088 35.9289 87.901 35.9007 88.085 35.8413C88.269 35.782 88.4448 35.6831 88.6123 35.5362C88.7798 35.3921 88.9034 35.2113 88.9831 34.9937L90.6446 36.0109C90.5045 36.3725 90.2601 36.689 89.9113 36.9659C89.5625 37.2428 89.1753 37.449 88.7496 37.5818C88.3239 37.7146 87.8955 37.7824 87.4643 37.7824C86.9343 37.7824 86.4344 37.6694 85.9621 37.4405C85.4897 37.2117 85.0942 36.915 84.7729 36.5449C84.4516 36.1747 84.1989 35.7537 84.0122 35.2791C83.8254 34.8044 83.7348 34.324 83.7348 33.8381C83.7348 33.3521 83.8227 32.9113 83.9985 32.4592C84.1742 32.01 84.4186 31.6059 84.7317 31.2443C85.0448 30.8826 85.4458 30.5944 85.9319 30.374C86.418 30.1537 86.948 30.0435 87.522 30.0435L87.5302 30.0519Z" fill="#222221"/>
<path d="M95.4532 33.8356V37.506H93.4086V30.0435H95.0034L97.9973 33.8356V30.0435H100.042V37.506H98.4167L95.4532 33.8356Z" fill="#222221"/>
<path d="M103.082 33.8917C103.082 33.3913 103.177 32.9077 103.365 32.4384C103.553 31.969 103.811 31.5618 104.138 31.2084C104.464 30.855 104.864 30.5722 105.332 30.3601C105.803 30.1481 106.303 30.0435 106.837 30.0435C107.37 30.0435 107.881 30.1537 108.352 30.3771C108.823 30.6005 109.217 30.8945 109.533 31.2593C109.848 31.624 110.096 32.0397 110.276 32.5062C110.455 32.9728 110.545 33.4478 110.545 33.9342C110.545 34.4205 110.452 34.9125 110.265 35.379C110.077 35.8456 109.821 36.2556 109.497 36.609C109.171 36.9653 108.774 37.248 108.303 37.4629C107.832 37.6778 107.329 37.7824 106.799 37.7824C106.268 37.7824 105.757 37.6722 105.286 37.4516C104.815 37.2311 104.423 36.9398 104.105 36.5751C103.79 36.2103 103.539 35.7947 103.357 35.3281C103.175 34.8616 103.085 34.3809 103.085 33.8917H103.082ZM106.815 35.9247C107.095 35.9247 107.345 35.8654 107.566 35.7494C107.786 35.6307 107.963 35.4751 108.094 35.28C108.224 35.0849 108.325 34.8701 108.393 34.6354C108.461 34.4007 108.494 34.1547 108.494 33.8946C108.494 33.5383 108.434 33.2131 108.314 32.9191C108.194 32.625 108.004 32.3818 107.743 32.1924C107.481 32.0029 107.169 31.9068 106.804 31.9068C106.524 31.9068 106.276 31.9634 106.056 32.0793C105.838 32.1952 105.661 32.3479 105.531 32.5402C105.4 32.7324 105.3 32.9473 105.232 33.182C105.164 33.4167 105.131 33.6627 105.131 33.9172C105.131 34.1717 105.166 34.429 105.234 34.6665C105.302 34.904 105.406 35.1161 105.539 35.3083C105.672 35.4978 105.849 35.6505 106.069 35.7636C106.29 35.8767 106.535 35.9304 106.812 35.9304L106.815 35.9247Z" fill="#222221"/>
<path d="M113.585 37.506V30.0435H115.668V35.7206H119.113V37.506H113.585Z" fill="#222221"/>
<path d="M121.324 33.8917C121.324 33.3913 121.419 32.9077 121.607 32.4384C121.795 31.969 122.053 31.5618 122.38 31.2084C122.706 30.855 123.106 30.5722 123.574 30.3601C124.045 30.1481 124.545 30.0435 125.079 30.0435C125.612 30.0435 126.123 30.1537 126.594 30.3771C127.065 30.6005 127.459 30.8945 127.775 31.2593C128.09 31.624 128.338 32.0397 128.517 32.5062C128.697 32.9728 128.787 33.4478 128.787 33.9342C128.787 34.4205 128.694 34.9125 128.506 35.379C128.319 35.8456 128.063 36.2556 127.739 36.609C127.413 36.9653 127.016 37.248 126.545 37.4629C126.074 37.6778 125.571 37.7824 125.04 37.7824C124.51 37.7824 123.998 37.6722 123.528 37.4516C123.057 37.2311 122.665 36.9398 122.347 36.5751C122.031 36.2103 121.781 35.7947 121.599 35.3281C121.417 34.8616 121.327 34.3809 121.327 33.8917H121.324ZM125.057 35.9247C125.337 35.9247 125.587 35.8654 125.808 35.7494C126.028 35.6307 126.205 35.4751 126.335 35.28C126.466 35.0849 126.567 34.8701 126.635 34.6354C126.703 34.4007 126.735 34.1547 126.735 33.8946C126.735 33.5383 126.676 33.2131 126.556 32.9191C126.436 32.625 126.246 32.3818 125.984 32.1924C125.723 32.0029 125.41 31.9068 125.046 31.9068C124.766 31.9068 124.518 31.9634 124.298 32.0793C124.08 32.1952 123.903 32.3479 123.773 32.5402C123.642 32.7324 123.541 32.9473 123.473 33.182C123.405 33.4167 123.373 33.6627 123.373 33.9172C123.373 34.1717 123.408 34.429 123.476 34.6665C123.544 34.904 123.647 35.1161 123.781 35.3083C123.914 35.4978 124.091 35.6505 124.311 35.7636C124.532 35.8767 124.777 35.9304 125.054 35.9304L125.057 35.9247Z" fill="#222221"/>
<path d="M135.655 33.6655H138.737V37.7315H137.037V37.0953C136.507 37.5534 135.894 37.7824 135.192 37.7824C134.701 37.7824 134.235 37.692 133.8 37.511C133.362 37.33 132.976 37.0756 132.641 36.7504C132.305 36.4224 132.042 36.0096 131.845 35.5091C131.648 35.0086 131.551 34.4544 131.551 33.8493C131.551 33.3206 131.65 32.8229 131.85 32.3536C132.05 31.8842 132.319 31.4799 132.66 31.1434C133.001 30.8069 133.409 30.5383 133.883 30.3404C134.357 30.1424 134.862 30.0435 135.395 30.0435C136.071 30.0435 136.682 30.1933 137.228 30.4902C137.774 30.7871 138.182 31.1943 138.448 31.7089L136.923 32.9021C136.779 32.6024 136.557 32.3592 136.257 32.1783C135.958 31.9973 135.644 31.904 135.314 31.904C134.826 31.904 134.427 32.0934 134.111 32.4723C133.794 32.8512 133.639 33.3347 133.639 33.9257C133.639 34.5166 133.797 35.0086 134.116 35.3762C134.435 35.7438 134.851 35.9276 135.364 35.9276C135.952 35.9276 136.479 35.6759 136.951 35.1754H135.653V33.6684L135.655 33.6655Z" fill="#222221"/>
<path d="M141.777 37.506V30.0435H143.712V37.506H141.777Z" fill="#222221"/>
<path d="M148.909 30.0435H151.24L153.662 37.506H151.544L151.085 36.0439H149.055L148.605 37.506H146.476L148.909 30.0435ZM150.75 34.6786L150.074 32.0501L149.368 34.6786H150.747H150.75Z" fill="#222221"/>
<path d="M77.6542 50.6458V52.4313H72.4028V44.9688H77.5641V46.7542H74.4253V47.8073H77.1083V49.4657H74.4253V50.6458H77.6542Z" fill="#222221"/>
<path d="M85.1168 52.4313V44.9688H87.0515V52.4313H85.1168Z" fill="#222221"/>
<path d="M92.6893 48.7609V52.4313H90.6447V44.9688H92.2395L95.2334 48.7609V44.9688H97.2781V52.4313H95.6528L92.6893 48.7609Z" fill="#222221"/>
<path d="M100.318 48.6796C100.318 48.197 100.414 47.7307 100.601 47.2781C100.789 46.8283 101.047 46.4329 101.374 46.0921C101.7 45.7513 102.1 45.4786 102.568 45.2741C103.039 45.0696 103.54 44.9688 104.073 44.9688C104.606 44.9688 105.117 45.0751 105.588 45.2905C106.059 45.5059 106.453 45.7894 106.769 46.1412C107.084 46.4929 107.332 46.8937 107.512 47.3436C107.691 47.7935 107.781 48.2515 107.781 48.7205C107.781 49.1895 107.688 49.6639 107.501 50.1138C107.313 50.5636 107.057 50.959 106.734 51.2998C106.407 51.6433 106.01 51.916 105.539 52.1232C105.069 52.3304 104.565 52.4313 104.035 52.4313C103.504 52.4313 102.993 52.325 102.522 52.1123C102.051 51.8997 101.66 51.6188 101.341 51.2671C101.026 50.9154 100.775 50.5146 100.593 50.0647C100.411 49.6148 100.321 49.1513 100.321 48.6796H100.318ZM104.051 50.64C104.331 50.64 104.582 50.5827 104.802 50.4709C105.022 50.3564 105.199 50.2065 105.33 50.0183C105.46 49.8302 105.561 49.623 105.629 49.3967C105.697 49.1704 105.73 48.9332 105.73 48.6823C105.73 48.3388 105.67 48.0225 105.55 47.7389C105.43 47.4554 105.24 47.2209 104.979 47.0382C104.718 46.8555 104.405 46.7628 104.04 46.7628C103.76 46.7628 103.512 46.8174 103.292 46.9291C103.074 47.0409 102.897 47.1882 102.767 47.3736C102.636 47.559 102.536 47.7662 102.468 47.9925C102.4 48.2188 102.367 48.456 102.367 48.7014C102.367 48.9468 102.402 49.1949 102.47 49.4239C102.538 49.653 102.642 49.8575 102.775 50.0429C102.908 50.2255 103.085 50.3728 103.306 50.4818C103.526 50.5909 103.771 50.6427 104.048 50.6427L104.051 50.64Z" fill="#222221"/>
<path d="M111.87 44.9688L113.32 50.0654L114.756 44.9688H116.902L114.338 52.4313H112.31L109.716 44.9688H111.873H111.87Z" fill="#222221"/>
<path d="M120.717 44.9688H123.048L125.47 52.4313H123.352L122.893 50.9692H120.863L120.413 52.4313H118.284L120.717 44.9688ZM122.558 49.6038L121.883 46.9754L121.176 49.6038H122.556H122.558Z" fill="#222221"/>
<path d="M134.315 50.7175C134.133 51.1557 133.803 51.5204 133.325 51.8144C132.844 52.1084 132.314 52.2989 131.734 52.386C132.075 52.7235 132.245 53.0855 132.245 53.472C132.245 53.8014 132.138 54.079 131.921 54.3049C131.703 54.5309 131.39 54.6425 130.978 54.6425C130.566 54.6425 130.131 54.5254 129.686 54.2886L130.145 53.2815C130.299 53.4122 130.464 53.4775 130.645 53.4775C130.774 53.4775 130.879 53.4421 130.961 53.3686C131.044 53.2951 131.085 53.1971 131.085 53.0719C131.085 52.8596 130.953 52.631 130.687 52.3887C130.211 52.3316 129.766 52.1846 129.351 51.9478C128.938 51.711 128.589 51.4197 128.309 51.074C128.029 50.7283 127.806 50.3418 127.647 49.9172C127.487 49.4926 127.405 49.0598 127.405 48.6243C127.405 48.1888 127.493 47.7315 127.669 47.296C127.845 46.8632 128.089 46.474 128.403 46.1256C128.716 45.7772 129.117 45.4995 129.604 45.2872C130.09 45.0749 130.621 44.9688 131.195 44.9688C131.893 44.9688 132.509 45.113 133.042 45.4043C133.575 45.6955 133.974 46.0847 134.238 46.572L132.679 47.6689C132.61 47.4974 132.52 47.3504 132.404 47.2279C132.289 47.1055 132.16 47.0102 132.017 46.9449C131.874 46.8795 131.731 46.8305 131.591 46.8033C131.451 46.7734 131.305 46.7598 131.154 46.7598C130.873 46.7598 130.623 46.8169 130.403 46.9285C130.184 47.0401 130.005 47.1926 129.876 47.3776C129.744 47.5655 129.645 47.7696 129.576 47.9928C129.507 48.216 129.474 48.4474 129.474 48.6842C129.474 49.2204 129.628 49.6777 129.939 50.0588C130.25 50.4398 130.659 50.6304 131.173 50.6304C131.374 50.6304 131.566 50.6031 131.75 50.546C131.934 50.4888 132.11 50.3935 132.278 50.252C132.446 50.1132 132.569 49.939 132.649 49.7294L134.312 50.7093L134.315 50.7175Z" fill="#222221"/>
<path d="M138.959 44.9128H141.29L143.712 52.4313H141.594L141.135 50.9582H139.105L138.655 52.4313H136.526L138.959 44.9128ZM139.429 43.916C139.339 43.916 139.26 43.9327 139.192 43.9689C139.125 44.0023 139.077 44.0441 139.046 44.0886C139.015 44.1332 138.99 44.1833 138.973 44.2418C138.956 44.2975 138.945 44.3392 138.942 44.3671C138.939 44.3949 138.936 44.4144 138.936 44.4311H137.855C137.855 44.3476 137.872 44.2418 137.905 44.1137C137.939 43.9856 137.996 43.8408 138.072 43.6821C138.15 43.5233 138.243 43.3757 138.353 43.2393C138.463 43.1029 138.604 42.9887 138.778 42.8968C138.953 42.8049 139.142 42.7576 139.344 42.7576C139.502 42.7576 139.651 42.7854 139.795 42.8439C139.939 42.9024 140.054 42.9636 140.144 43.0305C140.234 43.0973 140.338 43.1586 140.454 43.217C140.569 43.2727 140.679 43.3034 140.789 43.3034C140.876 43.3034 140.955 43.2839 141.023 43.2477C141.093 43.2115 141.144 43.1697 141.18 43.1196C141.214 43.0722 141.245 43.0193 141.268 42.9608C141.29 42.9051 141.304 42.8606 141.313 42.8272C141.321 42.7938 141.324 42.7715 141.324 42.7576H142.397C142.397 42.816 142.38 42.9052 142.343 43.0277C142.31 43.1474 142.25 43.2894 142.172 43.4537C142.093 43.618 141.997 43.7712 141.884 43.9132C141.772 44.0552 141.625 44.1777 141.445 44.2808C141.265 44.3838 141.071 44.4339 140.865 44.4339C140.719 44.4339 140.575 44.406 140.434 44.3531C140.293 44.3002 140.175 44.2418 140.085 44.1777C139.992 44.1137 139.888 44.0552 139.77 44.0023C139.651 43.9494 139.539 43.9215 139.435 43.9215L139.429 43.916ZM140.8 49.5854L140.124 46.9373L139.418 49.5854H140.797H140.8Z" fill="#222221"/>
<path d="M145.647 48.6796C145.647 48.197 145.742 47.7307 145.93 47.2781C146.117 46.8283 146.376 46.4329 146.702 46.0921C147.029 45.7513 147.429 45.4786 147.897 45.2741C148.367 45.0696 148.868 44.9688 149.401 44.9688C149.934 44.9688 150.446 45.0751 150.916 45.2905C151.387 45.5059 151.782 45.7894 152.097 46.1412C152.413 46.4929 152.66 46.8937 152.84 47.3436C153.019 47.7935 153.109 48.2515 153.109 48.7205C153.109 49.1895 153.017 49.6639 152.829 50.1138C152.641 50.5636 152.385 50.959 152.062 51.2998C151.735 51.6433 151.338 51.916 150.867 52.1232C150.397 52.3304 149.893 52.4313 149.363 52.4313C148.832 52.4313 148.321 52.325 147.85 52.1123C147.38 51.8997 146.988 51.6188 146.67 51.2671C146.354 50.9154 146.104 50.5146 145.921 50.0647C145.739 49.6148 145.649 49.1513 145.649 48.6796H145.647ZM149.379 50.64C149.659 50.64 149.91 50.5827 150.13 50.4709C150.35 50.3564 150.527 50.2065 150.658 50.0183C150.789 49.8302 150.889 49.623 150.957 49.3967C151.025 49.1704 151.058 48.9332 151.058 48.6823C151.058 48.3388 150.998 48.0225 150.878 47.7389C150.759 47.4554 150.568 47.2209 150.307 47.0382C150.046 46.8555 149.733 46.7628 149.368 46.7628C149.088 46.7628 148.841 46.8174 148.62 46.9291C148.403 47.0409 148.226 47.1882 148.095 47.3736C147.965 47.559 147.864 47.7662 147.796 47.9925C147.728 48.2188 147.695 48.456 147.695 48.7014C147.695 48.9468 147.731 49.1949 147.799 49.4239C147.867 49.653 147.97 49.8575 148.103 50.0429C148.237 50.2255 148.413 50.3728 148.634 50.4818C148.854 50.5909 149.099 50.6427 149.377 50.6427L149.379 50.64Z" fill="#222221"/>
<path d="M193.598 66.5248C193.261 66.5248 192.959 66.4754 192.69 66.3739C192.421 66.2723 192.198 66.1379 192.021 65.9704C191.844 65.803 191.697 65.5971 191.58 65.3611C191.463 65.1223 191.379 64.8725 191.327 64.6145C191.276 64.3538 191.251 64.0766 191.251 63.7829V60.9998H192.113V63.7829C192.113 63.9915 192.127 64.1891 192.159 64.373C192.189 64.5569 192.241 64.7353 192.314 64.9082C192.388 65.0784 192.48 65.2266 192.589 65.3474C192.698 65.4681 192.839 65.5642 193.011 65.6383C193.182 65.7124 193.378 65.7481 193.598 65.7481C193.818 65.7481 194.017 65.7097 194.191 65.6356C194.365 65.5615 194.506 65.4626 194.615 65.3391C194.724 65.2156 194.816 65.0674 194.887 64.8972C194.96 64.7271 195.009 64.5487 195.039 64.3675C195.069 64.1864 195.083 63.9915 195.083 63.7829V60.9998H195.95V63.7829C195.95 64.1671 195.904 64.5212 195.814 64.8451C195.724 65.169 195.588 65.4572 195.403 65.7152C195.221 65.9704 194.974 66.1708 194.667 66.3135C194.359 66.4562 194 66.5276 193.595 66.5276L193.598 66.5248Z" fill="black"/>
<path d="M199.579 62.6186V66.5276H198.714V60.9998H199.425L202.539 64.9944V61.0053H203.413V66.5248H202.652L199.579 62.6158V62.6186Z" fill="black"/>
<path d="M206.176 66.5276V60.9998H207.006V66.5276H206.176Z" fill="black"/>
<path d="M211.705 60.9497H212.549L214.745 66.5275H213.805L213.21 65.0111H211.031L210.441 66.5275H209.493L211.705 60.9497ZM211.601 59.9072C211.519 59.9072 211.449 59.9239 211.392 59.9601C211.336 59.9936 211.296 60.0382 211.271 60.0856C211.248 60.1357 211.231 60.1776 211.223 60.2082C211.214 60.2389 211.212 60.264 211.212 60.2835H210.718C210.718 60.2445 210.726 60.1915 210.74 60.1274C210.755 60.0605 210.786 59.9824 210.828 59.896C210.87 59.8068 210.921 59.726 210.983 59.6507C211.045 59.5755 211.124 59.5113 211.229 59.4584C211.33 59.4054 211.443 59.3803 211.567 59.3803C211.7 59.3803 211.824 59.4082 211.943 59.4667C212.061 59.5253 212.177 59.581 212.284 59.6396C212.394 59.6981 212.501 59.726 212.606 59.726C212.679 59.726 212.741 59.712 212.798 59.687C212.854 59.6619 212.896 59.6312 212.924 59.5978C212.956 59.5643 212.978 59.5281 212.998 59.489C213.015 59.45 213.026 59.4194 213.032 59.3943C213.037 59.3692 213.037 59.3525 213.037 59.3413H213.54C213.54 59.3748 213.531 59.4222 213.514 59.4863C213.497 59.5504 213.466 59.6256 213.421 59.7176C213.376 59.8068 213.32 59.8904 213.257 59.9657C213.193 60.0438 213.105 60.1079 212.995 60.1636C212.885 60.2194 212.764 60.2472 212.631 60.2472C212.498 60.2472 212.363 60.2194 212.239 60.1636C212.115 60.1079 211.999 60.0521 211.895 59.9936C211.79 59.9378 211.691 59.91 211.598 59.91L211.601 59.9072ZM213.035 64.3616L212.126 61.917L211.189 64.3616H213.035Z" fill="black"/>
<path d="M216.129 63.7637C216.129 63.4039 216.195 63.055 216.332 62.7197C216.466 62.3844 216.649 62.0901 216.879 61.8366C217.108 61.5831 217.39 61.3814 217.718 61.2287C218.047 61.0761 218.397 60.9998 218.766 60.9998C219.135 60.9998 219.499 61.0788 219.833 61.2396C220.164 61.4004 220.44 61.6103 220.661 61.872C220.883 62.1337 221.058 62.4308 221.186 62.7606C221.315 63.0931 221.378 63.4284 221.378 63.7719C221.378 64.1317 221.31 64.4806 221.176 64.8158C221.042 65.1511 220.861 65.4455 220.631 65.6962C220.402 65.9497 220.125 66.1515 219.794 66.3014C219.466 66.454 219.116 66.5276 218.747 66.5276C218.44 66.5276 218.151 66.4758 217.874 66.375C217.598 66.2741 217.355 66.1351 217.147 65.9579C216.936 65.7807 216.756 65.5763 216.6 65.3419C216.447 65.1102 216.329 64.8567 216.247 64.5869C216.168 64.3143 216.127 64.0417 216.127 63.7637H216.129ZM218.758 65.7508C219.023 65.7508 219.269 65.6935 219.491 65.579C219.715 65.4646 219.898 65.3119 220.04 65.1238C220.183 64.9358 220.295 64.7231 220.374 64.4887C220.453 64.2543 220.492 64.0117 220.492 63.7637C220.492 63.5156 220.451 63.2567 220.366 63.0195C220.281 62.7797 220.166 62.5698 220.019 62.3844C219.871 62.2018 219.688 62.0546 219.469 61.9456C219.25 61.8366 219.012 61.782 218.755 61.782C218.498 61.782 218.244 61.8393 218.019 61.9538C217.795 62.0683 217.609 62.2182 217.464 62.4062C217.319 62.5943 217.207 62.8042 217.125 63.0413C217.046 63.2758 217.004 63.5184 217.004 63.7664C217.004 64.1126 217.076 64.4342 217.212 64.7341C217.352 65.0339 217.557 65.2792 217.828 65.47C218.099 65.6608 218.408 65.7562 218.755 65.7562L218.758 65.7508Z" fill="black"/>
<path d="M231.328 65.7568V66.5276H227.459V60.9998H231.258V61.7705H228.347V63.3396H230.866V64.0662H228.347V65.7541H231.328V65.7568Z" fill="black"/>
<path d="M237.132 66.5276V60.9998H239.584C239.829 60.9998 240.063 61.0522 240.282 61.1545C240.502 61.2594 240.688 61.3948 240.837 61.5661C240.986 61.7346 241.104 61.928 241.194 62.1434C241.282 62.3589 241.327 62.5772 241.327 62.7982C241.327 63.1739 241.225 63.5109 241.025 63.8148C240.823 64.1187 240.558 64.3203 240.229 64.4253L241.555 66.5276H240.555L239.331 64.6049H238.022V66.5276H237.135H237.132ZM238.019 63.8314H239.576C239.821 63.8314 240.023 63.7319 240.184 63.5302C240.344 63.3286 240.423 63.0855 240.423 62.7982C240.423 62.5109 240.333 62.276 240.153 62.0744C239.973 61.8727 239.764 61.7733 239.525 61.7733H238.019V63.8341V63.8314Z" fill="black"/>
<path d="M247.912 65.7568V66.5276H244.042V60.9998H247.841V61.7705H244.931V63.3396H247.449V64.0662H244.931V65.7541H247.912V65.7568Z" fill="black"/>
<path d="M252.307 60.9998C252.801 60.9998 253.236 61.1088 253.611 61.3241C253.986 61.5395 254.266 61.8284 254.455 62.1882L253.755 62.6434C253.679 62.4853 253.586 62.349 253.473 62.2318C253.36 62.1146 253.236 62.0246 253.1 61.962C252.965 61.8993 252.829 61.8502 252.694 61.8202C252.558 61.7902 252.42 61.7739 252.276 61.7739C252.048 61.7739 251.836 61.812 251.638 61.8884C251.441 61.9647 251.274 62.0655 251.133 62.1936C250.992 62.3217 250.874 62.4689 250.772 62.6407C250.67 62.8124 250.597 62.9896 250.549 63.1776C250.501 63.3657 250.476 63.5565 250.476 63.7473C250.476 64.0989 250.552 64.4288 250.707 64.734C250.862 65.0393 251.08 65.2846 251.362 65.47C251.644 65.6554 251.957 65.7508 252.299 65.7508C252.493 65.7508 252.683 65.7208 252.869 65.6635C253.055 65.6036 253.233 65.5054 253.405 65.3664C253.577 65.2274 253.71 65.0557 253.803 64.854L254.545 65.2601C254.432 65.5191 254.252 65.748 254 65.947C253.749 66.1433 253.473 66.2904 253.174 66.3858C252.874 66.4812 252.572 66.5276 252.268 66.5276C251.884 66.5276 251.523 66.4458 251.181 66.285C250.84 66.1215 250.555 65.9088 250.323 65.6445C250.092 65.3801 249.909 65.0775 249.773 64.7422C249.638 64.407 249.57 64.0662 249.57 63.7201C249.57 63.4557 249.609 63.1913 249.686 62.9296C249.765 62.6679 249.88 62.4226 250.036 62.1909C250.194 61.9592 250.377 61.7548 250.591 61.5776C250.806 61.4004 251.063 61.2587 251.356 61.1551C251.653 61.0515 251.966 60.9998 252.299 60.9998H252.307Z" fill="black"/>
<path d="M256.482 63.7637C256.482 63.4039 256.548 63.055 256.685 62.7197C256.819 62.3844 257.002 62.0901 257.232 61.8366C257.462 61.5831 257.743 61.3814 258.072 61.2287C258.4 61.0761 258.75 60.9998 259.119 60.9998C259.488 60.9998 259.852 61.0788 260.186 61.2396C260.517 61.4004 260.793 61.6103 261.015 61.872C261.236 62.1337 261.411 62.4308 261.54 62.7606C261.668 63.0931 261.731 63.4284 261.731 63.7719C261.731 64.1317 261.663 64.4806 261.529 64.8158C261.395 65.1511 261.214 65.4455 260.984 65.6962C260.755 65.9497 260.478 66.1515 260.148 66.3014C259.819 66.454 259.469 66.5276 259.1 66.5276C258.794 66.5276 258.504 66.4758 258.227 66.375C257.951 66.2741 257.708 66.1351 257.5 65.9579C257.289 65.7807 257.109 65.5763 256.953 65.3419C256.8 65.1102 256.682 64.8567 256.6 64.5869C256.521 64.3143 256.48 64.0417 256.48 63.7637H256.482ZM259.111 65.7508C259.376 65.7508 259.622 65.6935 259.844 65.579C260.068 65.4646 260.251 65.3119 260.394 65.1238C260.536 64.9358 260.648 64.7231 260.727 64.4887C260.807 64.2543 260.845 64.0117 260.845 63.7637C260.845 63.5156 260.804 63.2567 260.719 63.0195C260.634 62.7797 260.52 62.5698 260.372 62.3844C260.224 62.2018 260.041 62.0546 259.822 61.9456C259.603 61.8366 259.365 61.782 259.108 61.782C258.851 61.782 258.597 61.8393 258.372 61.9538C258.148 62.0683 257.962 62.2182 257.817 62.4062C257.672 62.5943 257.56 62.8042 257.478 63.0413C257.399 63.2758 257.358 63.5184 257.358 63.7664C257.358 64.1126 257.429 64.4342 257.566 64.7341C257.705 65.0339 257.91 65.2792 258.181 65.47C258.452 65.6608 258.761 65.7562 259.108 65.7562L259.111 65.7508Z" fill="black"/>
<path d="M265.084 62.6186V66.5276H264.219V60.9998H264.93L268.044 64.9944V61.0053H268.917V66.5248H268.157L265.084 62.6158V62.6186Z" fill="black"/>
<path d="M275.198 62.3206C275.076 62.1901 274.866 62.0651 274.574 61.9455C274.279 61.8259 273.976 61.7662 273.664 61.7662C273.296 61.7662 273.018 61.8314 272.836 61.9618C272.652 62.0923 272.562 62.2771 272.562 62.5162C272.562 62.5923 272.573 62.6576 272.593 62.7174C272.613 62.7771 272.641 62.8315 272.672 62.875C272.703 62.9212 272.754 62.9647 272.819 63.0082C272.885 63.0516 272.95 63.087 273.012 63.1168C273.077 63.1467 273.162 63.1794 273.273 63.212C273.384 63.2446 273.488 63.2745 273.582 63.2989C273.678 63.3234 273.803 63.3533 273.959 63.3913C274.209 63.4484 274.421 63.5055 274.6 63.5626C274.775 63.6196 274.946 63.6903 275.11 63.7745C275.274 63.8615 275.405 63.9566 275.504 64.0626C275.603 64.1686 275.683 64.2991 275.739 64.4485C275.799 64.6007 275.827 64.7747 275.827 64.9676C275.827 65.185 275.79 65.3807 275.719 65.5546C275.649 65.7286 275.549 65.8753 275.425 65.9949C275.3 66.1145 275.15 66.215 274.971 66.2966C274.795 66.3781 274.605 66.4352 274.401 66.4732C274.197 66.5086 273.979 66.5276 273.746 66.5276C273.316 66.5276 272.896 66.4651 272.493 66.3401C272.091 66.2151 271.728 66.033 271.405 65.7965L271.813 65.06C271.978 65.2231 272.244 65.378 272.615 65.5302C272.987 65.6824 273.367 65.7558 273.761 65.7558C274.115 65.7558 274.387 65.696 274.577 65.5764C274.767 65.4568 274.863 65.2856 274.863 65.06C274.863 64.9703 274.849 64.8888 274.821 64.8181C274.792 64.7448 274.741 64.6795 274.673 64.6225C274.605 64.5654 274.532 64.5138 274.458 64.4703C274.384 64.4268 274.279 64.3833 274.14 64.3398C274.002 64.2963 273.88 64.2583 273.766 64.2284C273.653 64.1985 273.5 64.1605 273.307 64.1115C273.009 64.0354 272.76 63.9593 272.567 63.8832C272.372 63.8072 272.199 63.712 272.051 63.5979C271.901 63.4865 271.793 63.3533 271.725 63.1984C271.657 63.0462 271.623 62.8641 271.623 62.6549C271.623 62.394 271.677 62.1575 271.782 61.9455C271.887 61.7335 272.031 61.5596 272.216 61.4237C272.4 61.2878 272.618 61.1818 272.868 61.1085C273.117 61.0351 273.389 60.9998 273.684 60.9998C274.381 60.9998 275.019 61.2036 275.6 61.614L275.195 62.3178L275.198 62.3206Z" fill="black"/>
<path d="M282.461 61.7705H280.568V66.5276H279.66V61.7705H277.762V60.9998H282.461V61.7705Z" fill="black"/>
<path d="M284.395 66.5276V60.9998H286.847C287.092 60.9998 287.326 61.0522 287.545 61.1545C287.765 61.2594 287.951 61.3948 288.1 61.5661C288.249 61.7346 288.367 61.928 288.457 62.1434C288.545 62.3589 288.59 62.5772 288.59 62.7982C288.59 63.1739 288.488 63.5109 288.288 63.8148C288.086 64.1187 287.821 64.3203 287.492 64.4253L288.818 66.5276H287.818L286.594 64.6049H285.285V66.5276H284.398H284.395ZM285.282 63.8314H286.839C287.084 63.8314 287.286 63.7319 287.447 63.5302C287.607 63.3286 287.686 63.0855 287.686 62.7982C287.686 62.5109 287.596 62.276 287.416 62.0744C287.236 61.8727 287.027 61.7733 286.788 61.7733H285.282V63.8341V63.8314Z" fill="black"/>
<path d="M293.375 66.5248C293.038 66.5248 292.736 66.4754 292.467 66.3739C292.198 66.2723 291.975 66.1379 291.798 65.9704C291.622 65.803 291.475 65.5971 291.358 65.3611C291.241 65.1223 291.157 64.8725 291.105 64.6145C291.053 64.3538 291.029 64.0766 291.029 63.7829V60.9998H291.891V63.7829C291.891 63.9915 291.904 64.1891 291.937 64.373C291.967 64.5569 292.019 64.7353 292.092 64.9082C292.165 65.0784 292.258 65.2266 292.367 65.3474C292.475 65.4681 292.617 65.5642 292.788 65.6383C292.959 65.7124 293.155 65.7481 293.375 65.7481C293.596 65.7481 293.794 65.7097 293.968 65.6356C294.142 65.5615 294.284 65.4626 294.392 65.3391C294.501 65.2156 294.594 65.0674 294.664 64.8972C294.738 64.7271 294.787 64.5487 294.817 64.3675C294.846 64.1864 294.86 63.9915 294.86 63.7829V60.9998H295.727V63.7829C295.727 64.1671 295.681 64.5212 295.592 64.8451C295.502 65.169 295.366 65.4572 295.181 65.7152C294.999 65.9704 294.751 66.1708 294.444 66.3135C294.137 66.4562 293.778 66.5276 293.373 66.5276L293.375 66.5248Z" fill="black"/>
<path d="M303.19 65.2251C303.046 65.5576 302.794 65.8334 302.438 66.0497C302.082 66.2659 301.695 66.4038 301.277 66.4606C301.549 66.6795 301.687 66.9228 301.687 67.1932C301.687 67.4121 301.611 67.5852 301.458 67.7149C301.306 67.8447 301.091 67.9096 300.817 67.9096C300.489 67.9096 300.178 67.8366 299.879 67.6906L300.099 67.2391C300.303 67.3446 300.489 67.3986 300.664 67.3986C300.814 67.3986 300.933 67.3689 301.015 67.3067C301.099 67.2472 301.142 67.158 301.142 67.0418C301.142 66.8444 301 66.6552 300.715 66.4768C300.354 66.4497 300.017 66.3497 299.701 66.1794C299.387 66.0091 299.122 65.7928 298.907 65.536C298.692 65.2792 298.523 64.9899 298.399 64.6682C298.274 64.3492 298.215 64.0248 298.215 63.6977C298.215 63.4355 298.254 63.1733 298.331 62.9137C298.407 62.6542 298.526 62.4109 298.681 62.1811C298.839 61.9513 299.023 61.7486 299.238 61.5729C299.452 61.3971 299.709 61.2566 300.003 61.1538C300.3 61.0511 300.613 60.9998 300.947 60.9998C301.441 60.9998 301.876 61.1079 302.252 61.3215C302.628 61.535 302.907 61.8216 303.097 62.1784L302.396 62.6299C302.32 62.4731 302.227 62.3379 302.114 62.2217C302.001 62.1054 301.876 62.0162 301.741 61.9541C301.605 61.8919 301.469 61.8432 301.334 61.8135C301.198 61.7837 301.06 61.7675 300.916 61.7675C300.687 61.7675 300.475 61.8054 300.277 61.8811C300.079 61.9567 299.913 62.0568 299.772 62.1838C299.63 62.3109 299.512 62.4569 299.41 62.6272C299.308 62.7948 299.235 62.9732 299.187 63.1598C299.139 63.3463 299.113 63.5355 299.113 63.7248C299.113 64.0735 299.19 64.4006 299.345 64.7034C299.5 65.0061 299.718 65.2495 300 65.4333C300.283 65.6171 300.596 65.7117 300.938 65.7117C301.133 65.7117 301.323 65.682 301.509 65.6252C301.695 65.5657 301.873 65.4684 302.046 65.3305C302.218 65.1927 302.351 65.0224 302.444 64.8223L303.187 65.2251H303.19Z" fill="black"/>
<path d="M307.061 60.9497H307.904L310.1 66.5275H309.16L308.565 65.0111H306.386L305.796 66.5275H304.848L307.061 60.9497ZM306.956 59.9072C306.874 59.9072 306.804 59.9239 306.747 59.9601C306.691 59.9936 306.651 60.0382 306.626 60.0856C306.604 60.1357 306.587 60.1776 306.578 60.2082C306.57 60.2389 306.567 60.264 306.567 60.2835H306.073C306.073 60.2445 306.081 60.1915 306.096 60.1274C306.11 60.0605 306.141 59.9824 306.183 59.896C306.225 59.8068 306.276 59.726 306.338 59.6507C306.4 59.5755 306.479 59.5113 306.584 59.4584C306.685 59.4054 306.798 59.3803 306.922 59.3803C307.055 59.3803 307.179 59.4082 307.298 59.4667C307.416 59.5253 307.532 59.581 307.639 59.6396C307.749 59.6981 307.856 59.726 307.961 59.726C308.034 59.726 308.096 59.712 308.153 59.687C308.209 59.6619 308.251 59.6312 308.28 59.5978C308.311 59.5643 308.333 59.5281 308.353 59.489C308.37 59.45 308.381 59.4194 308.387 59.3943C308.393 59.3692 308.393 59.3525 308.393 59.3413H308.895C308.895 59.3748 308.886 59.4222 308.869 59.4863C308.853 59.5504 308.821 59.6256 308.776 59.7176C308.731 59.8068 308.675 59.8904 308.613 59.9657C308.548 60.0438 308.46 60.1079 308.35 60.1636C308.24 60.2194 308.119 60.2472 307.986 60.2472C307.854 60.2472 307.718 60.2194 307.594 60.1636C307.47 60.1079 307.354 60.0521 307.25 59.9936C307.145 59.9378 307.047 59.91 306.953 59.91L306.956 59.9072ZM308.39 64.3616L307.481 61.917L306.544 64.3616H308.39Z" fill="black"/>
<path d="M311.761 63.7637C311.761 63.4039 311.829 63.055 311.963 62.7197C312.098 62.3844 312.281 62.0901 312.511 61.8366C312.741 61.5831 313.022 61.3814 313.351 61.2287C313.679 61.0761 314.03 60.9998 314.399 60.9998C314.768 60.9998 315.132 61.0788 315.463 61.2396C315.795 61.4004 316.071 61.6103 316.293 61.872C316.514 62.1337 316.689 62.4308 316.818 62.7606C316.947 63.0931 317.01 63.4284 317.01 63.7719C317.01 64.1317 316.944 64.4806 316.807 64.8158C316.673 65.1511 316.492 65.4455 316.263 65.6962C316.035 65.9497 315.756 66.1515 315.428 66.3014C315.099 66.454 314.749 66.5276 314.38 66.5276C314.073 66.5276 313.783 66.4758 313.507 66.375C313.23 66.2741 312.987 66.1351 312.779 65.9579C312.568 65.7807 312.388 65.5763 312.232 65.3419C312.076 65.1075 311.961 64.8567 311.879 64.5869C311.799 64.3143 311.758 64.0417 311.758 63.7637H311.761ZM314.391 65.7508C314.656 65.7508 314.902 65.6935 315.124 65.579C315.349 65.4646 315.532 65.3119 315.674 65.1238C315.816 64.9358 315.929 64.7231 316.008 64.4887C316.087 64.2543 316.126 64.0117 316.126 63.7637C316.126 63.5156 316.085 63.2567 316 63.0195C315.915 62.7797 315.8 62.5698 315.652 62.3844C315.505 62.2018 315.321 62.0546 315.102 61.9456C314.883 61.8366 314.645 61.782 314.388 61.782C314.131 61.782 313.876 61.8393 313.652 61.9538C313.427 62.0683 313.241 62.2182 313.096 62.4062C312.951 62.5943 312.836 62.8042 312.757 63.0413C312.678 63.2758 312.637 63.5184 312.637 63.7664C312.637 64.1126 312.705 64.4342 312.845 64.7341C312.984 65.0339 313.189 65.2792 313.46 65.47C313.731 65.6608 314.04 65.7562 314.385 65.7562L314.391 65.7508Z" fill="black"/>
<path d="M220.971 37.7825H206.453V52.4312H230.499L220.971 37.7825Z" fill="#00CF00"/>
<path d="M189.896 52.4314H195.33C201.473 52.4314 206.453 47.4814 206.453 41.3757C206.453 35.2701 201.473 30.3201 195.33 30.3201H178.261V52.4287H189.893L189.896 52.4314Z" fill="#FF0000"/>
<path d="M178.261 30.3199H194.043C198.15 30.3199 201.478 26.9795 201.478 22.8574C201.478 18.7352 198.15 15.3948 194.043 15.3948H178.261V30.3199Z" fill="#183EFF"/>
<path d="M245.7 15.3948L223.589 52.4313H267.812L245.7 15.3948Z" fill="#FFCF00"/>
<path d="M317.01 15.3948H304.296V39.9937H317.01V15.3948Z" fill="#FFCF00"/>
<path d="M330 39.9939H317.286V52.4315H330V39.9939Z" fill="#183EFF"/>
<path d="M317.01 39.9939H304.296V52.4315H317.01V39.9939Z" fill="#3C3C3C"/>
<path d="M273.34 31.7021H261.178V52.4315H273.34V31.7021Z" fill="#FF0000"/>
<path d="M223.589 52.4314H230.499L226.892 46.9036L223.589 52.4314Z" fill="#3C3C3C"/>
<path d="M261.178 41.6519V52.4311H267.535L261.178 41.6519Z" fill="#3C3C3C"/>
<path d="M302.084 15.3948H289.37V52.4313H302.084V15.3948Z" fill="#00CF00"/>
<path d="M190.975 15.3948H178.261V30.3199H190.975V15.3948Z" fill="#00CF00"/>
<path d="M217.106 37.7798H220.98C227.153 37.7798 232.157 32.7691 232.157 26.5873C232.157 20.4054 227.153 15.3948 220.98 15.3948H206.453V37.7825H217.106V37.7798Z" fill="#183EFF"/>
<path d="M287.159 15.3948H273.34V28.938H287.159V15.3948Z" fill="#183EFF"/>
<path d="M277.575 28.938H273.34V52.4313H277.575C284.089 52.4313 289.37 47.1714 289.37 40.6846C289.37 34.1978 284.089 28.938 277.575 28.938Z" fill="#FFCF00"/>
<path d="M269.447 15.3948C264.88 15.3948 261.178 19.1069 261.178 23.6865C261.178 28.2662 264.88 31.9783 269.447 31.9783H273.34V15.3948H269.447Z" fill="#00CF00"/>
<path d="M190.975 30.3201H178.261V52.4314H190.975V30.3201Z" fill="#FFCF00"/>
<path d="M221.102 37.7825L206.453 15.3948V37.7825H221.102Z" fill="#FFCF00"/>
<path d="M259.244 52.4314C259.244 44.9516 253.18 38.8882 245.7 38.8882C238.221 38.8882 232.157 44.9516 232.157 52.4314H259.241H259.244Z" fill="#183EFF"/>
<path d="M198.437 3.70594V4.26255C198.437 6.48343 196.953 7.93231 194.985 7.93231C192.895 7.93231 191.251 6.29602 191.251 4.21221C191.251 2.12839 192.903 0.469727 194.974 0.469727C196.28 0.469727 197.483 1.14102 198.142 2.24027L196.509 3.21365C196.196 2.64864 195.619 2.32419 194.952 2.32419C193.905 2.32419 193.163 3.13254 193.163 4.2206C193.163 5.30866 193.905 6.06387 194.983 6.06387C195.736 6.06387 196.216 5.68626 196.383 5.22475H194.469V3.70594H198.432H198.437Z" fill="black"/>
<path d="M200.925 4.20102C200.925 2.12559 202.581 0.469727 204.667 0.469727C206.754 0.469727 208.388 2.12559 208.388 4.20102C208.388 6.27644 206.732 7.93231 204.667 7.93231C202.603 7.93231 200.925 6.27644 200.925 4.20102ZM206.323 4.20102C206.323 3.19407 205.599 2.43887 204.667 2.43887C203.736 2.43887 202.981 3.19407 202.981 4.20102C202.981 5.20796 203.714 5.96038 204.667 5.96038C205.621 5.96038 206.323 5.20516 206.323 4.20102Z" fill="black"/>
<path d="M217.508 0.746094L214.72 7.93228H212.801L210.046 0.746094H212.11L213.766 5.17509L215.441 0.746094H217.508Z" fill="black"/>
<path d="M221.874 2.43286V3.46066H223.919V4.94404H221.874V5.96912H224.971V7.65589H219.996V0.746094H224.971V2.43286H221.874Z" fill="black"/>
<path d="M230.643 5.26675H229.857V7.65589H228.011V0.746094H231.367C232.723 0.746094 233.765 1.71151 233.765 2.99151C233.765 3.87557 233.286 4.60777 232.551 4.99285L234.092 7.65589H232.021L230.643 5.26675ZM229.857 3.69116H231.163C231.601 3.69116 231.876 3.38744 231.876 3.05117C231.876 2.7149 231.612 2.40032 231.163 2.40032H229.857V3.69116Z" fill="black"/>
<path d="M243.213 0.746094V7.93228H241.597L238.741 4.14889V7.93228H236.856V0.746094H238.461L241.328 4.54076V0.746094H243.213Z" fill="black"/>
<path d="M245.701 4.20102C245.701 2.12559 247.356 0.469727 249.443 0.469727C251.53 0.469727 253.163 2.12559 253.163 4.20102C253.163 6.27644 251.507 7.93231 249.443 7.93231C247.379 7.93231 245.701 6.27644 245.701 4.20102ZM251.099 4.20102C251.099 3.19407 250.374 2.43887 249.443 2.43887C248.512 2.43887 247.756 3.19407 247.756 4.20102C247.756 5.20796 248.489 5.96038 249.443 5.96038C250.397 5.96038 251.099 5.20516 251.099 4.20102Z" fill="black"/>
<path d="M262.504 2.40303V3.57184H264.548V5.13658H262.504V7.65589H260.626V0.746094H265.601V2.40303H262.504Z" fill="black"/>
<path d="M270.243 2.43286V3.46066H272.287V4.94404H270.243V5.96912H273.34V7.65589H268.365V0.746094H273.34V2.43286H270.243Z" fill="black"/>
<path d="M283.013 4.20099C283.013 6.18335 281.395 7.65589 279.251 7.65589H276.38V0.746094H279.251C281.398 0.746094 283.013 2.21863 283.013 4.20099ZM281.044 4.20099C281.044 3.19489 280.278 2.54405 279.157 2.54405H278.297V5.85793H279.157C280.278 5.85793 281.044 5.20708 281.044 4.20099Z" fill="black"/>
<path d="M287.656 2.43286V3.46066H289.7V4.94404H287.656V5.96912H290.752V7.65589H285.777V0.746094H290.752V2.43286H287.656Z" fill="black"/>
<path d="M296.425 5.26675H295.638V7.65589H293.793V0.746094H297.149C298.504 0.746094 299.547 1.71151 299.547 2.99151C299.547 3.87557 299.068 4.60777 298.333 4.99285L299.873 7.65589H297.802L296.425 5.26675ZM295.638 3.69116H296.945C297.383 3.69116 297.658 3.38744 297.658 3.05117C297.658 2.7149 297.394 2.40032 296.945 2.40032H295.638V3.69116Z" fill="black"/>
<path d="M307.353 6.4681H304.558L304.07 7.65589H302.084L305.035 0.746094H306.843L309.823 7.65589H307.849L307.35 6.4681H307.353ZM306.657 4.822L305.95 3.12438L305.243 4.822H306.657Z" fill="black"/>
<path d="M317.286 5.87962V7.65589H312.311V0.746094H314.315V5.87962H317.286Z" fill="black"/>
<path d="M198.437 3.70594V4.26255C198.437 6.48343 196.953 7.93231 194.985 7.93231C192.895 7.93231 191.251 6.29602 191.251 4.21221C191.251 2.12839 192.903 0.469727 194.974 0.469727C196.28 0.469727 197.483 1.14102 198.142 2.24027L196.509 3.21365C196.196 2.64864 195.619 2.32419 194.952 2.32419C193.905 2.32419 193.163 3.13254 193.163 4.2206C193.163 5.30866 193.905 6.06387 194.983 6.06387C195.736 6.06387 196.216 5.68626 196.383 5.22475H194.469V3.70594H198.432H198.437Z" fill="black"/>
<path d="M200.925 4.20102C200.925 2.12559 202.581 0.469727 204.667 0.469727C206.754 0.469727 208.388 2.12559 208.388 4.20102C208.388 6.27644 206.732 7.93231 204.667 7.93231C202.603 7.93231 200.925 6.27644 200.925 4.20102ZM206.323 4.20102C206.323 3.19407 205.599 2.43887 204.667 2.43887C203.736 2.43887 202.981 3.19407 202.981 4.20102C202.981 5.20796 203.714 5.96038 204.667 5.96038C205.621 5.96038 206.323 5.20516 206.323 4.20102Z" fill="black"/>
<path d="M217.508 0.746094L214.72 7.93228H212.801L210.046 0.746094H212.11L213.766 5.17509L215.441 0.746094H217.508Z" fill="black"/>
<path d="M221.874 2.43286V3.46066H223.919V4.94404H221.874V5.96912H224.971V7.65589H219.996V0.746094H224.971V2.43286H221.874Z" fill="black"/>
<path d="M230.643 5.26675H229.857V7.65589H228.011V0.746094H231.367C232.723 0.746094 233.765 1.71151 233.765 2.99151C233.765 3.87557 233.286 4.60777 232.551 4.99285L234.092 7.65589H232.021L230.643 5.26675ZM229.857 3.69116H231.163C231.601 3.69116 231.876 3.38744 231.876 3.05117C231.876 2.7149 231.612 2.40032 231.163 2.40032H229.857V3.69116Z" fill="black"/>
<path d="M243.213 0.746094V7.93228H241.597L238.741 4.14889V7.93228H236.856V0.746094H238.461L241.328 4.54076V0.746094H243.213Z" fill="black"/>
<path d="M245.701 4.20102C245.701 2.12559 247.356 0.469727 249.443 0.469727C251.53 0.469727 253.163 2.12559 253.163 4.20102C253.163 6.27644 251.507 7.93231 249.443 7.93231C247.379 7.93231 245.701 6.27644 245.701 4.20102ZM251.099 4.20102C251.099 3.19407 250.374 2.43887 249.443 2.43887C248.512 2.43887 247.756 3.19407 247.756 4.20102C247.756 5.20796 248.489 5.96038 249.443 5.96038C250.397 5.96038 251.099 5.20516 251.099 4.20102Z" fill="black"/>
<path d="M262.504 2.40303V3.57184H264.548V5.13658H262.504V7.65589H260.626V0.746094H265.601V2.40303H262.504Z" fill="black"/>
<path d="M270.243 2.43286V3.46066H272.287V4.94404H270.243V5.96912H273.34V7.65589H268.365V0.746094H273.34V2.43286H270.243Z" fill="black"/>
<path d="M283.013 4.20099C283.013 6.18335 281.395 7.65589 279.251 7.65589H276.38V0.746094H279.251C281.398 0.746094 283.013 2.21863 283.013 4.20099ZM281.044 4.20099C281.044 3.19489 280.278 2.54405 279.157 2.54405H278.297V5.85793H279.157C280.278 5.85793 281.044 5.20708 281.044 4.20099Z" fill="black"/>
<path d="M287.656 2.43286V3.46066H289.7V4.94404H287.656V5.96912H290.752V7.65589H285.777V0.746094H290.752V2.43286H287.656Z" fill="black"/>
<path d="M296.425 5.26675H295.638V7.65589H293.793V0.746094H297.149C298.504 0.746094 299.547 1.71151 299.547 2.99151C299.547 3.87557 299.068 4.60777 298.333 4.99285L299.873 7.65589H297.802L296.425 5.26675ZM295.638 3.69116H296.945C297.383 3.69116 297.658 3.38744 297.658 3.05117C297.658 2.7149 297.394 2.40032 296.945 2.40032H295.638V3.69116Z" fill="black"/>
<path d="M307.353 6.4681H304.558L304.07 7.65589H302.084L305.035 0.746094H306.843L309.823 7.65589H307.849L307.35 6.4681H307.353ZM306.657 4.822L305.95 3.12438L305.243 4.822H306.657Z" fill="black"/>
<path d="M317.286 5.87962V7.65589H312.311V0.746094H314.315V5.87962H317.286Z" fill="black"/>
</svg>
