<svg width="145" height="34" viewBox="0 0 145 34" fill="none" xmlns="http://www.w3.org/2000/svg">
<path d="M33.2693 16.7666C33.1397 16.4246 32.7595 16.2525 32.4153 16.3842L20.0185 21.0957L17.5332 0.582252C17.4886 0.219013 17.1636 -0.0380151 16.7982 0.00446895C16.435 0.0490772 16.1779 0.378329 16.2204 0.739443L18.6887 21.1191L1.15981 16.4607C0.807193 16.3672 0.443954 16.5775 0.350489 16.9301C0.257024 17.2827 0.46732 17.646 0.819938 17.7394L18.6845 22.4892L16.4796 32.8871C16.4031 33.244 16.6325 33.5945 16.9894 33.671C17.0361 33.6816 17.0807 33.6858 17.1274 33.6858C17.4333 33.6858 17.7074 33.4734 17.7732 33.1612L20.0334 22.5019L32.8827 17.6184C33.2247 17.4888 33.3967 17.1064 33.265 16.7644L33.2693 16.7666Z" fill="#A1DBFF"/>
<path d="M33.5242 17.4377C33.5369 17.4164 33.5497 17.393 33.5603 17.3697C33.5667 17.3548 33.573 17.3399 33.5794 17.3251C33.5815 17.3166 33.5858 17.3102 33.59 17.2996C33.5943 17.289 33.5943 17.2762 33.5964 17.2656C33.6028 17.2422 33.607 17.2189 33.6113 17.1955C33.6134 17.1743 33.6155 17.1551 33.6176 17.1339C33.6176 17.1127 33.6176 17.0914 33.6176 17.068C33.6176 17.0468 33.6155 17.0256 33.6113 17.0064C33.6091 16.9852 33.6049 16.964 33.5985 16.9427C33.5943 16.9236 33.5879 16.9024 33.5815 16.8832C33.5752 16.862 33.5667 16.8429 33.5582 16.8216C33.5497 16.8025 33.5412 16.7855 33.5306 16.7664C33.5199 16.7473 33.5093 16.7303 33.4966 16.7133C33.4838 16.6942 33.469 16.6772 33.4541 16.6602C33.4456 16.6517 33.4413 16.6411 33.4328 16.6347L17.3505 0.199748C17.3505 0.199748 17.3462 0.197624 17.3462 0.1955C17.3271 0.176382 17.3038 0.159388 17.2825 0.142395C17.2698 0.133898 17.2592 0.121153 17.2464 0.112656C17.2252 0.0977864 17.2018 0.0871654 17.1784 0.0744202C17.1636 0.0659234 17.1487 0.0574265 17.1317 0.0510539C17.1147 0.0425571 17.0935 0.0404329 17.0743 0.0340603C17.051 0.0276877 17.0276 0.0170667 17.0042 0.0128183C17.0042 0.0128183 17 0.0128183 16.9979 0.0128183C16.9788 0.00856987 16.9618 0.0106941 16.9426 0.00856988C16.9214 0.00644567 16.9002 0.00219727 16.8789 0.00219727C16.8789 0.00219727 16.8747 0.00219727 16.8725 0.00219727C16.8492 0.00219727 16.8279 0.00644567 16.8046 0.00856988C16.7833 0.0106941 16.7621 0.0106941 16.7408 0.0149425C16.7217 0.0191909 16.7026 0.0255635 16.6835 0.0319361C16.6601 0.0383087 16.6368 0.0446813 16.6155 0.0531781C16.6028 0.0595508 16.59 0.0680476 16.5773 0.0744202C16.5518 0.0871654 16.5263 0.0999106 16.5029 0.116904C16.4966 0.121153 16.4923 0.127525 16.4859 0.131774C16.4583 0.153016 16.4307 0.172134 16.4073 0.197624L0.195427 16.6305C0.195427 16.6305 0.193303 16.6326 0.191178 16.6347C0.191178 16.6347 0.184806 16.6453 0.180557 16.6496C0.155067 16.6772 0.131701 16.7048 0.110459 16.7345C0.0977134 16.7515 0.0913408 16.7707 0.0807197 16.7898C0.0700987 16.8089 0.0594777 16.828 0.0509809 16.8471C0.0424841 16.8684 0.0361115 16.8896 0.0297389 16.913C0.0233662 16.9321 0.0169936 16.9512 0.0127452 16.9703C0.00849681 16.9916 0.00849681 17.0128 0.00637261 17.0341C0.00424841 17.0553 0 17.0765 0 17.0978C0 17.1212 0.00424841 17.1445 0.00637261 17.1679C0.00637261 17.187 0.00637261 17.2061 0.0127452 17.2231C0.0297388 17.3081 0.0616019 17.3909 0.110459 17.4653C0.135949 17.5035 0.163564 17.5375 0.193303 17.5672L16.4413 33.8068C16.4413 33.8068 16.4498 33.8131 16.452 33.8153C16.4711 33.8323 16.4902 33.8471 16.5114 33.8641C16.5242 33.8747 16.5369 33.8854 16.5497 33.8939C16.573 33.9087 16.5985 33.9215 16.624 33.9321C16.6368 33.9385 16.6474 33.9448 16.6601 33.9512C16.692 33.964 16.7239 33.9725 16.7578 33.981C16.7663 33.981 16.7727 33.9852 16.7812 33.9873C16.8216 33.9958 16.8641 34.0001 16.9087 34.0001C16.9278 34.0001 16.9448 34.0001 16.9639 33.9979C16.9766 33.9979 16.9873 33.9937 17 33.9916C17.0212 33.9873 17.0446 33.9852 17.0659 33.9788C17.0871 33.9725 17.1083 33.9661 17.1296 33.9597C17.1487 33.9533 17.1678 33.9448 17.1869 33.9363C17.2082 33.9257 17.2273 33.9151 17.2485 33.9045C17.2655 33.8939 17.2825 33.8832 17.2974 33.8705C17.3165 33.8556 17.3335 33.8429 17.3505 33.8259C17.359 33.8174 17.3675 33.8131 17.376 33.8046L33.418 17.5715C33.418 17.5715 33.418 17.5715 33.4201 17.5694L33.4243 17.5651C33.4243 17.5651 33.4286 17.5587 33.4328 17.5545C33.4562 17.529 33.4796 17.5014 33.4987 17.4738C33.5072 17.4631 33.5136 17.4504 33.5199 17.4398L33.5242 17.4377ZM14.3171 10.8314L3.38598 15.2752L15.8338 2.65958L14.3193 10.8314H14.3171ZM14.3235 12.2567L16.0845 31.5806L1.83319 17.3357L14.3256 12.2567H14.3235ZM15.6511 12.2419L31.7314 17.3994L17.4397 31.8631L15.6511 12.244V12.2419ZM15.6575 10.8548L17.2931 2.03294L30.6183 15.6533L15.6554 10.8548H15.6575Z" fill="#0092FF"/>
<path d="M43.4166 25.2155V8.50012H45.0437V23.7115H55.5968V25.2155H43.4166Z" fill="#202020"/>
<path d="M72.5033 25.2155L70.1178 20.0622H61.3937L58.97 25.2155H57.1368L65.1748 8.50012H66.5555L74.2961 25.2155H72.5033ZM65.8652 10.8792L62.1457 18.5603H69.4232L65.8673 10.8792H65.8652Z" fill="#202020"/>
<path d="M87.7955 17.0564C89.3398 17.7956 90.113 19.0702 90.113 20.8779V25.2176H88.4858V20.9522C88.4858 18.9151 87.0138 17.8955 84.0717 17.8955H77.6864V25.2176H76.0592V8.50012H84.2948C88.3371 8.50012 90.3594 9.99556 90.3594 12.9864C90.3594 14.9088 89.5054 16.2662 87.7955 17.0543V17.0564ZM84.3436 10.0041H77.6864V16.3894H83.9485C85.3293 16.3894 86.4381 16.143 87.2772 15.6481C88.2458 15.0703 88.7322 14.2036 88.7322 13.0502C88.7322 11.0216 87.2687 10.0062 84.3436 10.0062V10.0041Z" fill="#202020"/>
<path d="M106.877 25.2155V17.2773H95.0666V25.2155H93.4395V8.50012H95.0666V15.7734H106.877V8.50012H108.504V25.2155H106.877Z" fill="#202020"/>
<path d="M124.308 23.8857C123.108 24.8884 121.309 25.3897 118.909 25.3897C114.027 25.3897 111.587 23.2209 111.587 18.8811V8.50012H113.214V18.8556C113.214 22.2097 115.113 23.8857 118.909 23.8857C122.705 23.8857 124.604 22.2416 124.604 18.9555V8.50012H126.231V18.93C126.231 21.1816 125.589 22.8342 124.308 23.8857Z" fill="#202020"/>
<path d="M142.084 23.121C140.423 24.5187 138.156 25.2176 135.28 25.2176H129.313V8.50012H136.217C139.01 8.50012 141.138 9.25634 142.602 10.7688C144.015 12.2154 144.722 14.2546 144.722 16.8822C144.722 19.5099 143.843 21.6574 142.084 23.1189V23.121ZM141.393 11.7671C140.259 10.5925 138.526 10.0041 136.191 10.0041H130.94V23.7115H135.354C137.803 23.7115 139.707 23.1359 141.062 21.9867C142.417 20.8354 143.097 19.136 143.097 16.8822C143.097 14.6284 142.53 12.9418 141.395 11.7671H141.393Z" fill="#202020"/>
</svg>
