<svg width="153" height="44" viewBox="0 0 153 44" fill="none" xmlns="http://www.w3.org/2000/svg">
<path d="M57.7565 17.9018C58.6655 16.338 59.8964 15.114 61.455 14.2356C63.0136 13.3572 64.7203 12.9166 66.5753 12.9166C68.698 12.9166 70.5843 13.4436 72.2398 14.4977C73.8924 15.5518 75.092 17.0436 75.8385 18.976H71.9093C71.3935 17.9133 70.6755 17.1213 69.758 16.6001C68.8405 16.0788 67.7777 15.8167 66.5753 15.8167C65.256 15.8167 64.0792 16.1162 63.0478 16.7153C62.0163 17.3143 61.2071 18.1754 60.6258 19.2957C60.0417 20.416 59.7511 21.7206 59.7511 23.2096C59.7511 24.6985 60.0417 26.0031 60.6258 27.1234C61.2099 28.2437 62.0163 29.1077 63.0478 29.7183C64.0792 30.326 65.256 30.6312 66.5753 30.6312C67.7806 30.6312 68.8405 30.3692 69.758 29.8479C70.6755 29.3266 71.3935 28.5346 71.9093 27.4719H75.8385C75.092 29.4044 73.8924 30.8933 72.2398 31.9359C70.5872 32.9784 68.698 33.4997 66.5753 33.4997C64.7004 33.4997 62.9908 33.0619 61.4407 32.1806C59.8935 31.3023 58.6626 30.0783 57.7565 28.5145C56.8476 26.9478 56.3945 25.1795 56.3945 23.2096C56.3945 21.2397 56.8476 19.4714 57.7565 17.9047V17.9018Z" fill="#4D4D4D"/>
<path d="M79.8391 21.0035C80.4973 19.768 81.3977 18.8061 82.5345 18.1207C83.6714 17.4352 84.928 17.0925 86.3043 17.0925C87.5466 17.0925 88.6322 17.3402 89.5582 17.8327C90.4843 18.3252 91.2251 18.9386 91.7807 19.673V17.3546H95.0774V33.3269H91.7807V30.9509C91.2251 31.7054 90.47 32.3333 89.5155 32.8344C88.5581 33.3355 87.4696 33.5889 86.2473 33.5889C84.891 33.5889 83.6458 33.2376 82.5203 32.532C81.3919 31.8264 80.4973 30.8414 79.8391 29.5743C79.178 28.31 78.8503 26.8757 78.8503 25.2687C78.8503 23.6617 79.1809 22.2448 79.8391 21.0064V21.0035ZM91.1083 22.4521C90.6581 21.64 90.0711 21.0237 89.3445 20.5974C88.6179 20.1712 87.8344 19.9581 86.9938 19.9581C86.1532 19.9581 85.3697 20.1654 84.6431 20.5802C83.9165 20.9949 83.3295 21.6054 82.8793 22.4061C82.4291 23.2096 82.204 24.1599 82.204 25.2601C82.204 26.3602 82.4291 27.3279 82.8793 28.1573C83.3295 28.9896 83.9222 29.6203 84.6573 30.0552C85.3924 30.4901 86.1732 30.7061 86.9938 30.7061C87.8144 30.7061 88.6179 30.493 89.3445 30.0696C90.0711 29.6434 90.6581 29.0213 91.1083 28.2005C91.5585 27.3797 91.7836 26.4178 91.7836 25.3177C91.7836 24.2175 91.5585 23.2585 91.1083 22.4493V22.4521Z" fill="#4D4D4D"/>
<path d="M105.204 17.8442C106.159 17.3431 107.241 17.0897 108.444 17.0897C109.82 17.0897 111.077 17.4324 112.213 18.1178C113.35 18.8033 114.245 19.7652 114.895 21.0007C115.544 22.239 115.869 23.6589 115.869 25.263C115.869 26.8671 115.544 28.3014 114.895 29.5685C114.245 30.8357 113.35 31.8207 112.213 32.5263C111.077 33.2318 109.82 33.5832 108.444 33.5832C107.238 33.5832 106.167 33.3384 105.233 32.843C104.295 32.3506 103.531 31.7371 102.939 31.0028V40.9156H99.6706V17.3518H102.939V19.6989C103.492 18.9645 104.247 18.3482 105.204 17.8442ZM111.872 22.409C111.421 21.6083 110.829 20.9978 110.094 20.5831C109.358 20.1684 108.569 19.961 107.729 19.961C106.888 19.961 106.127 20.1741 105.392 20.6003C104.657 21.0266 104.064 21.6429 103.614 22.455C103.164 23.2672 102.942 24.2233 102.942 25.3235C102.942 26.4236 103.167 27.3855 103.614 28.2063C104.064 29.0271 104.657 29.6521 105.392 30.0754C106.127 30.5016 106.908 30.7119 107.729 30.7119C108.549 30.7119 109.358 30.4959 110.094 30.061C110.829 29.6261 111.421 28.9925 111.872 28.1631C112.322 27.3337 112.547 26.366 112.547 25.2659C112.547 24.1657 112.322 23.2125 111.872 22.4118V22.409Z" fill="#4D4D4D"/>
<path d="M119.573 14.6273C119.172 14.2212 118.972 13.7201 118.972 13.1211C118.972 12.5221 119.172 12.0209 119.573 11.6149C119.975 11.2088 120.471 11.0072 121.064 11.0072C121.656 11.0072 122.124 11.2088 122.525 11.6149C122.927 12.0209 123.127 12.5221 123.127 13.1211C123.127 13.7201 122.927 14.2212 122.525 14.6273C122.124 15.0334 121.636 15.235 121.064 15.235C120.491 15.235 119.975 15.0305 119.573 14.6273ZM122.671 17.3517V33.324H119.402V17.3517H122.671Z" fill="#4D4D4D"/>
<path d="M131.073 20.0474V28.8889C131.073 29.4879 131.213 29.917 131.489 30.1791C131.766 30.4412 132.239 30.5708 132.908 30.5708H134.917V33.324H132.336C130.863 33.324 129.734 32.9755 128.951 32.2814C128.167 31.5874 127.774 30.4556 127.774 28.8889V20.0474H125.91V17.3517H127.774V13.3803H131.073V17.3517H134.917V20.0474H131.073Z" fill="#4D4D4D"/>
<path d="M152.523 17.3517V33.324H149.255V31.4405C148.739 32.0971 148.064 32.6155 147.232 32.9928C146.4 33.3701 145.517 33.5573 144.579 33.5573C143.337 33.5573 142.223 33.2952 141.237 32.7739C140.251 32.2526 139.479 31.4808 138.915 30.4556C138.351 29.4303 138.069 28.1948 138.069 26.7462V17.3546H141.308V26.2537C141.308 27.685 141.662 28.7794 142.368 29.5426C143.075 30.3058 144.041 30.6888 145.263 30.6888C146.486 30.6888 147.457 30.3087 148.175 29.5426C148.893 28.7794 149.252 27.6822 149.252 26.2537V17.3546H152.521L152.523 17.3517Z" fill="#4D4D4D"/>
<path d="M37.2611 18.6448C33.8134 13.2996 28.7215 10.2354 23.2935 10.2354C22.7635 10.2354 22.2279 10.2642 21.7007 10.3246C17.5549 10.7883 13.7653 13.0894 11.0327 16.8046L10.252 17.8644L0 13.7806L1.12265 12.0123C5.51636 5.09177 11.8134 0.843828 18.8599 0.0547192L19.3528 0L19.729 3.43291L19.236 3.48763C13.8707 4.08666 8.90425 7.15382 5.19153 12.139L9.1094 13.7028C12.3349 9.83218 16.6574 7.41877 21.3246 6.89462C21.9543 6.82262 22.5983 6.78806 23.2337 6.78806C29.7787 6.78806 36.0928 10.5176 40.1218 16.7642L40.3925 17.1847L37.5318 19.0682L37.2611 18.6477V18.6448Z" fill="url(#paint0_linear_102_26)"/>
<path d="M25.12 40.5671L25.6129 40.5124C30.9327 39.9162 35.8734 36.8894 39.5776 31.9675L35.9162 30.084C32.6708 34.0843 28.2856 36.5726 23.5243 37.1054C22.8946 37.1745 22.2535 37.2119 21.6181 37.2119C15.0703 37.2119 8.75324 33.4824 4.72424 27.2386L4.45355 26.8182L7.31431 24.9318L7.585 25.3523C11.0327 30.6975 16.1217 33.7646 21.5497 33.7646C22.0797 33.7646 22.6154 33.7329 23.1454 33.6753C27.4137 33.1973 31.2803 30.7896 34.0299 26.893L34.8847 25.6835L44.5811 30.6715L43.5354 32.2843C39.153 39.0263 32.9215 43.1677 25.9862 43.9453L25.4932 44L25.1171 40.5671H25.12Z" fill="url(#paint1_linear_102_26)"/>
<path d="M22.3304 28.7737C18.9112 28.7737 16.0504 26.1817 15.6715 22.7459C15.4749 20.9459 15.982 19.1777 17.1018 17.7665C18.2216 16.3524 19.8173 15.4654 21.5953 15.2667C21.8432 15.2407 22.0911 15.2263 22.339 15.2263C25.7553 15.2263 28.619 17.8183 28.9951 21.257C29.1917 23.057 28.6845 24.8252 27.5647 26.2364C26.4477 27.6505 24.8493 28.5375 23.0713 28.7362C22.8262 28.7622 22.5783 28.7766 22.3276 28.7766L22.3304 28.7737ZM22.3361 18.6765C22.2164 18.6765 22.0939 18.6823 21.9714 18.6967C21.0995 18.7946 20.3159 19.2295 19.7688 19.9236C19.2189 20.6176 18.971 21.4845 19.0679 22.3658C19.2531 24.0505 20.655 25.3235 22.3304 25.3235C22.4529 25.3235 22.5726 25.3177 22.698 25.3033C23.5699 25.2054 24.3535 24.7705 24.9034 24.0765C25.4533 23.3824 25.7012 22.5155 25.6043 21.6343C25.4191 19.9495 24.0144 18.6765 22.339 18.6765H22.3361Z" fill="url(#paint2_linear_102_26)"/>
<defs>
<linearGradient id="paint0_linear_102_26" x1="-0.17666" y1="0.538552" x2="46.4761" y2="29.9806" gradientUnits="userSpaceOnUse">
<stop stop-color="#0066FF"/>
<stop offset="1" stop-color="#00DDD7"/>
</linearGradient>
<linearGradient id="paint1_linear_102_26" x1="-6.93534" y1="10.2699" x2="39.7232" y2="39.7177" gradientUnits="userSpaceOnUse">
<stop stop-color="#0066FF"/>
<stop offset="1" stop-color="#00DDD7"/>
</linearGradient>
<linearGradient id="paint2_linear_102_26" x1="-4.67297" y1="4.5849" x2="44.0813" y2="35.3544" gradientUnits="userSpaceOnUse">
<stop stop-color="#0066FF"/>
<stop offset="1" stop-color="#00DDD7"/>
</linearGradient>
</defs>
</svg>
